<svg width="32" height="32" viewBox="0 0 32 32" fill="none" xmlns="http://www.w3.org/2000/svg">
<path fill-rule="evenodd" clip-rule="evenodd" d="M2.38844 10.0379C2.92315 10.5797 3.5915 11.0676 4.35884 11.5C3.5915 11.9324 2.92315 12.4203 2.38844 12.9621C1.5559 13.8057 1 14.8334 1 16C1 17.1666 1.5559 18.1943 2.38844 19.0379C3.21674 19.8772 4.36573 20.5871 5.70659 21.1618C8.39186 22.3126 12.0318 23 16 23C19.4756 23 22.6994 22.4727 25.2505 21.5685L25.4418 21.6494C26.6545 22.162 27.5724 22.7492 28.1724 23.3512C28.7683 23.9491 29 24.5055 29 25C29 25.4903 28.7724 26.041 28.1881 26.633C27.5995 27.2294 26.6982 27.8124 25.5056 28.3235C23.1238 29.3442 19.7638 30 16 30C12.2362 30 8.87615 29.3442 6.49442 28.3235C5.30178 27.8124 4.40052 27.2294 3.81194 26.633C3.2276 26.041 3 25.4903 3 25C3 24.8544 3.01955 24.7088 3.05937 24.5618L3.32096 23.5967L1.3906 23.0735L1.12901 24.0387C1.04442 24.3508 1 24.6722 1 25C1 26.1666 1.5559 27.1943 2.38844 28.0379C3.21674 28.8772 4.36573 29.5871 5.70659 30.1618C8.39186 31.3126 12.0318 32 16 32C19.9682 32 23.6081 31.3126 26.2934 30.1618C27.6343 29.5871 28.7833 28.8772 29.6116 28.0379C30.4441 27.1943 31 26.1666 31 25C31 23.8228 30.4341 22.7873 29.589 21.9394C29.0583 21.4069 28.3981 20.9265 27.6412 20.5C28.4085 20.0676 29.0769 19.5797 29.6116 19.0379C30.4441 18.1943 31 17.1666 31 16C31 14.8334 30.4441 13.8057 29.6116 12.9621C29.0769 12.4203 28.4085 11.9324 27.6412 11.5L27.6612 11.4887C29.533 10.4292 31 8.915 31 7C31 5.83341 30.4441 4.80567 29.6116 3.96209C28.7833 3.12281 27.6343 2.41287 26.2934 1.83821C23.6081 0.687382 19.9682 0 16 0C12.0318 0 8.39186 0.687382 5.70659 1.83821C4.36573 2.41287 3.21674 3.12281 2.38844 3.96209C1.5559 4.80567 1 5.83341 1 7C1 8.16659 1.5559 9.19433 2.38844 10.0379ZM25.5056 12.6765C25.4211 12.6403 25.3353 12.6045 25.2484 12.5692C23.7378 13.1044 21.9997 13.5046 20.1265 13.7435C18.8161 13.9106 17.4312 14 16 14C12.5254 14 9.30236 13.473 6.75161 12.5692C6.66467 12.6045 6.57893 12.6403 6.49442 12.6765C5.30178 13.1876 4.40052 13.7706 3.81194 14.367C3.2276 14.959 3 15.5097 3 16C3 16.4903 3.2276 17.041 3.81194 17.633C4.40052 18.2294 5.30178 18.8124 6.49442 19.3235C8.87615 20.3442 12.2362 21 16 21C19.7638 21 23.1238 20.3442 25.5056 19.3235C26.6982 18.8124 27.5995 18.2294 28.1881 17.633C28.7724 17.041 29 16.4903 29 16C29 15.5097 28.7724 14.959 28.1881 14.367C27.5995 13.7706 26.6982 13.1876 25.5056 12.6765ZM3 7C3 6.50974 3.2276 5.95905 3.81194 5.36696C4.40052 4.77058 5.30178 4.18764 6.49442 3.6765C8.87615 2.65576 12.2362 2 16 2C19.7638 2 23.1238 2.65576 25.5056 3.6765C26.6982 4.18764 27.5995 4.77058 28.1881 5.36696C28.7724 5.95905 29 6.50974 29 7C29 7.80302 28.3585 8.79581 26.676 9.74816C26.2487 9.99002 25.7711 10.2186 25.2484 10.4308C25.2484 10.4308 23.0003 11.2081 21.5102 11.5C20.8874 11.622 20.4583 11.6843 19.9054 11.7555L15.9692 12C14.005 11.9981 12.1512 11.8177 10.4898 11.5C10.4898 11.5 8.15754 11.0043 6.75161 10.4308C6.65085 10.3897 6.57893 10.3597 6.49442 10.3235C5.30178 9.81236 4.40052 9.22942 3.81194 8.63304C3.2276 8.04095 3 7.49026 3 7Z" fill="#A50F2D"/>
</svg>
