<svg width="32" height="32" fill="none" xmlns="http://www.w3.org/2000/svg"><path d="M28.371 2.634c.276-.248.668.127.433.414L18.213 15.95l11.152 12.42c.247.276-.127.668-.414.433l-12.903-10.59-12.42 11.152c-.276.247-.668-.127-.433-.414l10.59-12.903L2.634 3.629c-.248-.276.127-.668.414-.433l12.903 10.59L28.37 2.634z" fill="#A50F2D"/><path d="M14.853 8.372c.096-1.365 2.097-1.376 2.208-.012l.419 5.118c.044.545.48.976 1.025 1.014l5.123.36c1.365.097 1.376 2.097.013 2.208l-5.119.419c-.545.045-.975.48-1.014 1.026l-.36 5.122c-.096 1.365-2.097 1.376-2.208.013l-.419-5.118a1.107 1.107 0 00-1.025-1.014l-5.123-.361c-1.365-.096-1.376-2.096-.013-2.208l5.119-.418c.545-.045.975-.48 1.014-1.026l.36-5.123z" fill="#A50F2D"/></svg>